<svg width="22" height="22" viewBox="0 0 22 22" fill="none" xmlns="http://www.w3.org/2000/svg">
<path d="M11 0.5C5.21 0.5 0.5 5.21 0.5 11C0.5 16.79 5.21 21.5 11 21.5C16.79 21.5 21.5 16.79 21.5 11C21.5 5.21 16.79 0.5 11 0.5ZM11 20.5C5.762 20.5 1.5 16.238 1.5 11C1.5 5.762 5.762 1.5 11 1.5C16.238 1.5 20.5 5.762 20.5 11C20.5 16.238 16.238 20.5 11 20.5ZM11.5 10.929V15.5C11.5 15.776 11.276 16 11 16C10.724 16 10.5 15.776 10.5 15.5V10.929C10.5 10.653 10.724 10.429 11 10.429C11.276 10.429 11.5 10.652 11.5 10.929ZM11.75 7.5C11.75 7.915 11.4159 8.25 11.0039 8.25C10.5929 8.25 10.25 7.915 10.25 7.5C10.25 7.085 10.577 6.75 10.989 6.75H11.0039C11.4159 6.75 11.75 7.085 11.75 7.5Z" fill="#25314C"/>
</svg>
