<?xml version="1.0" encoding="UTF-8"?>
<svg xmlns="http://www.w3.org/2000/svg" viewBox="0 0 1167.34 543">
  <defs>
    <style>
      .cls-1 {
        letter-spacing: -.02em;
      }

      .cls-2 {
        font-family: MyriadPro-Regular, 'Myriad Pro';
        font-size: 12px;
      }

      .cls-3 {
        letter-spacing: 0em;
      }

      .cls-4 {
        letter-spacing: 0em;
      }

      .cls-5 {
        letter-spacing: 0em;
      }
    </style>
  </defs>
  <g id="_Слой_1" data-name="Слой 1">
    <path d="M45.1,21.56c.06-3.82-.57-7.18-5.14-7.18-5.37,0-5.37,7.24-5.37,15.22,0,12.88,1.26,15.16,6.17,15.16,1.43,0,2.97-.34,4.28-.8v-9.12h-4.68v-6.32h13.31v20.86c-.91,.18-2.36,.42-3.99,.66h-14.76c-7.99-1.99-9.07-8.32-9.07-20.89,0-10.38,.52-20.92,14.62-20.92,8.45,0,13.71,4.73,13.19,13.34h-8.57"/>
    <path d="M98.33,8.22c7.54-.02,11.65,2.93,12.22,9.55v2.81h-8.4c0-3-.75-6.21-4.23-6.21-2.8,0-4.46,1.54-4.46,4.38,0,7.22,14.84,7.18,17.08,17.35v5.96c-.91,4.81-3.94,7-7.5,7.96h-12.03c-5.97-1.83-7.17-6.99-6.81-12.69h8.62c0,3.94,.17,7.24,4.92,7.24,2.91,0,4.34-1.88,4.34-4.67,0-7.41-17.36-7.87-17.36-20.11,0-6.44,3.08-11.55,13.6-11.57"/>
    <g>
      <path d="M0,50.03H127.56v.99H0v-.99Z"/>
      <path d="M110.55,0h.99V59.53h-.99V0Z"/>
    </g>
    <text class="cls-2" transform="translate(960 540)"><tspan x="0" y="0">&lt;?php include </tspan><tspan class="cls-4" x="74.49" y="0">&quot;</tspan><tspan class="cls-3" x="78.44" y="0">dist/img/sgs_log</tspan><tspan class="cls-1" x="162.84" y="0">o</tspan><tspan x="169.14" y="0">.s</tspan><tspan class="cls-5" x="176.37" y="0">v</tspan><tspan x="182.03" y="0">g&quot; ?&gt;</tspan></text>
  </g>
  <g id="_Слой_2" data-name="Слой 2">
    <path d="M62.83,50.66c-5.97-1.83-7.17-6.99-6.81-12.69h8.63c0,3.94,.17,7.24,4.91,7.24,2.91,0,4.34-1.88,4.34-4.67,0-7.41-17.36-7.87-17.36-20.11,0-6.44,3.08-11.57,13.59-11.57,8.39,0,12.56,3.76,11.99,12.36h-8.4c0-3.08-.51-6.21-4-6.21-2.8,0-4.45,1.54-4.45,4.38,0,7.81,17.37,7.13,17.37,20.07,0,7.13-3.5,10.05-7.78,11.2h-12.03Z"/>
  </g>
</svg>