<?xml version="1.0" encoding="utf-8"?>
<!-- Generator: Adobe Illustrator 26.4.1, SVG Export Plug-In . SVG Version: 6.00 Build 0)  -->
<svg version="1.1" xmlns="http://www.w3.org/2000/svg" xmlns:xlink="http://www.w3.org/1999/xlink" x="0px" y="0px"
	 viewBox="0 0 127.6 59.5" style="enable-background:new 0 0 127.6 59.5;" xml:space="preserve">
<g id="Слой_1">
	<g>
		<path d="M45.1,21.6c0.1-3.8-0.6-7.2-5.1-7.2c-5.4,0-5.4,7.2-5.4,15.2c0,12.9,1.3,15.2,6.2,15.2c1.4,0,3-0.3,4.3-0.8v-9.1h-4.7
			v-6.3h13.3v20.9c-0.9,0.2-2.4,0.4-4,0.7H34.9c-8-2-9.1-8.3-9.1-20.9c0-10.4,0.5-20.9,14.6-20.9c8.5,0,13.7,4.7,13.2,13.3
			L45.1,21.6"/>
	</g>
	<path d="M98.3,8.2c7.5,0,11.7,2.9,12.2,9.6v2.8h-8.4c0-3-0.7-6.2-4.2-6.2c-2.8,0-4.5,1.5-4.5,4.4c0,7.2,14.8,7.2,17.1,17.4v6
		c-0.9,4.8-3.9,7-7.5,8H91c-6-1.8-7.2-7-6.8-12.7h8.6c0,3.9,0.2,7.2,4.9,7.2c2.9,0,4.3-1.9,4.3-4.7c0-7.4-17.4-7.9-17.4-20.1
		C84.7,13.4,87.8,8.2,98.3,8.2"/>
	<g>
		<path d="M0,50h127.6v1H0V50z"/>
		<path d="M110.6,0h1v59.5h-1V0z"/>
	</g>
	<text transform="matrix(1 0 0 1 960 540)" style="font-family:'MyriadPro-Regular'; font-size:12px;">&lt;?php include &quot;dist/img/sgs_logo.svg&quot; ?&gt;</text>
</g>
<g id="Слой_2">
	<g>
		<path d="M62.8,50.7c-6-1.8-7.2-7-6.8-12.7h8.6c0,3.9,0.2,7.2,4.9,7.2c2.9,0,4.3-1.9,4.3-4.7c0-7.4-17.4-7.9-17.4-20.1
			c0-6.4,3.1-11.6,13.6-11.6c8.4,0,12.6,3.8,12,12.4h-8.4c0-3.1-0.5-6.2-4-6.2c-2.8,0-4.5,1.5-4.5,4.4c0,7.8,17.4,7.1,17.4,20.1
			c0,7.1-3.5,10-7.8,11.2L62.8,50.7L62.8,50.7z"/>
	</g>
</g>
</svg>
